<svg id="Capa_1" data-name="Capa 1" xmlns="http://www.w3.org/2000/svg" viewBox="0 0 200 200"><defs><style>.cls-1{fill:#fff;}.cls-2,.cls-3,.cls-4{fill:none;stroke:#302e2b;stroke-miterlimit:10;}.cls-2{stroke-width:4px;}.cls-3{stroke-width:2px;}.cls-5{fill:#302e2b;}</style></defs><circle class="cls-1" cx="100" cy="100" r="96.5"/><path class="cls-2" d="M42.21,82.21a88.78,88.78,0,0,1,24.39-9C81,70.33,99.11,78.61,100,78.61s8.13-7.2,23.49-7.2c14.48,0,29.8,6.3,33.42,10.8S167.75,156,167.75,156H32.25Z"/><path class="cls-3" d="M46.27,83.11l-9,68.39S57.06,138,69.66,137.1s30.6,16.2,30.6,16.2l-1.8-73.79a51.66,51.66,0,0,0-30.6-5.4C61.56,75,46.27,83.11,46.27,83.11Z"/><path class="cls-3" d="M151.54,80.18,163.12,149S142.66,136.49,130,136.22s-29.58,15.91-29.58,15.91l-2.08-72a49.66,49.66,0,0,1,30.29-6.93A61.89,61.89,0,0,1,151.54,80.18Z"/><path class="cls-4" d="M38.17,153.3s17.94-11.11,27.89-12.6c18-2.7,33.3,12.6,33.3,12.6s-18.9-10.8-34.2-8.1A130,130,0,0,0,38.17,153.3Z"/><path class="cls-4" d="M100.26,153.3s16.8-13.49,29.1-13c9.6.39,32.09,9.39,32.09,9.39s-18-5.4-30.59-5.4C119,144.3,100.26,153.3,100.26,153.3Z"/><path class="cls-4" d="M100.26,154.2S83,147.53,74.16,147s-33.29,5.4-33.29,5.4"/><path class="cls-5" d="M59.51,58.35,53.68,47.11A3,3,0,0,0,49.58,46a3.06,3.06,0,0,0-1.08,4.1l5.83,11.24a3,3,0,0,0,4.11,1.08,3.07,3.07,0,0,0,1.07-4.11Z"/><path class="cls-5" d="M94.94,49.36,93.56,36.53a3.31,3.31,0,0,0-.88-2.13,3,3,0,0,0-2.12-.87c-1.48.06-3.18,1.32-3,3l1.38,12.83a3.22,3.22,0,0,0,.88,2.12,3.06,3.06,0,0,0,2.12.88c1.48-.07,3.18-1.33,3-3Z"/><path class="cls-5" d="M132,56c.46-1,1-1.88,1.52-2.78.29-.46.59-.91.89-1.36l.45-.63.25-.34c.07-.09.39-.51.08-.11s0,.05,0,0l.27-.34.49-.59c.36-.41.72-.81,1.09-1.2a31.37,31.37,0,0,1,2.37-2.24,3,3,0,0,0,0-4.24,3.07,3.07,0,0,0-4.24,0,33.81,33.81,0,0,0-8.38,10.83,3.23,3.23,0,0,0-.3,2.32A3,3,0,0,0,132,56Z"/></svg>