<svg id="Capa_1" data-name="Capa 1" xmlns="http://www.w3.org/2000/svg" viewBox="0 0 200 200"><defs><style>.cls-1,.cls-2{fill:#fff;}.cls-2,.cls-3{stroke:#302e2b;stroke-miterlimit:10;stroke-width:4px;}.cls-3{fill:none;}.cls-4{fill:#302e2b;}</style></defs><circle class="cls-1" cx="100" cy="100" r="96.5"/><path class="cls-2" d="M54,96s-15.5,4.5-20.5,9.5c-4.09,4.09-9,11-5,21s14,14,22,12,21-10,21-10Z"/><path class="cls-3" d="M54,96S78.36,82.69,87.5,70.5c6-8,8-23,8-26,0-5,4-7,6-4s34.6,71.19,41,84c2,4-2,10-8,6-10.16-6.77-15-12-29-11s-34,9-34,9Z"/><path class="cls-3" d="M119.5,75.5s6.79-.88,9.7,0a6.69,6.69,0,0,1,4.3,8c-1,3-6,7-6,7Z"/><path class="cls-3" d="M57.5,137.5s15.64,25.28,18,28c6.5,7.5,13,4,11-4-2.24-8.94-15-32.08-15-32.08Z"/><path class="cls-3" d="M71.5,129.42l5,8.08S85,134.35,85,132c0-2-2.13-4.56-3-6S71.5,129.42,71.5,129.42Z"/><path class="cls-4" d="M123.58,41.6,133,31.11a3,3,0,0,0-4.24-4.24l-9.37,10.49a3,3,0,0,0,4.24,4.24Z"/><path class="cls-4" d="M147.71,74.3l12.78-6.5a3,3,0,0,0,1.08-4.1,3.07,3.07,0,0,0-4.1-1.08l-12.79,6.5a3,3,0,0,0-1.08,4.1,3.08,3.08,0,0,0,4.11,1.08Z"/><path class="cls-4" d="M155.72,115.67l1,.1c.29,0,.7,0,.17,0a12.18,12.18,0,0,1,1.69.29,33.44,33.44,0,0,1,3.45.86c.55.16,1.09.34,1.63.54q.41.13.81.3l.55.21c-.37-.15.46.21.54.24l.78.36c.55.27,1.09.55,1.63.85a3,3,0,1,0,3-5.18,39,39,0,0,0-15.26-4.59,3,3,0,0,0-3,3,3.08,3.08,0,0,0,3,3Z"/></svg>